<?xml version="1.0" standalone="no"?>
<!DOCTYPE svg PUBLIC "-//W3C//DTD SVG 20010904//EN"
 "http://www.w3.org/TR/2001/REC-SVG-20010904/DTD/svg10.dtd">
<svg version="1.0" xmlns="http://www.w3.org/2000/svg"
 width="769.000000pt" height="637.000000pt" viewBox="0 0 769.000000 637.000000"
 preserveAspectRatio="xMidYMid meet">

<g transform="translate(0.000000,637.000000) scale(0.100000,-0.100000)"
fill="#ffffff" stroke="none">
<path d="M2427 5784 c-17 -28 -29 -176 -24 -277 20 -341 186 -625 480 -821
141 -94 288 -144 476 -162 l73 -7 -7 34 c-40 189 -247 512 -435 679 -39 35
-69 65 -66 67 15 15 224 -145 313 -241 253 -270 347 -562 360 -1118 3 -142 2
-248 -3 -248 -5 0 -34 39 -64 87 -133 209 -177 269 -243 335 -208 209 -496
299 -806 254 -126 -19 -241 -52 -344 -98 -77 -36 -77 -25 -11 -146 152 -278
380 -463 660 -534 74 -19 115 -23 249 -23 154 0 304 20 328 44 11 11 -152 176
-238 239 -80 60 -274 159 -385 197 l-75 26 56 -5 c80 -8 233 -49 323 -86 204
-85 390 -257 475 -441 59 -125 59 -134 53 -602 -4 -317 -8 -427 -17 -427 -6 0
-45 11 -86 25 -121 42 -374 101 -544 129 -320 52 -412 58 -1029 63 l-579 5 6
-138 c27 -581 288 -1165 707 -1584 446 -447 1012 -680 1649 -680 271 0 498 36
731 115 900 306 1521 1128 1599 2114 6 74 11 144 11 154 0 19 -12 19 -517 14
-285 -3 -567 -10 -628 -16 -371 -36 -714 -105 -1001 -201 l-116 -39 5 342 c4
333 4 344 30 434 33 116 71 199 133 293 125 190 317 338 530 410 87 29 87 25
-2 -28 -157 -93 -297 -219 -398 -356 -62 -84 -80 -115 -71 -124 4 -4 66 -7
138 -6 151 0 262 23 383 79 208 95 395 283 494 498 30 65 80 204 80 222 0 19
-216 55 -331 55 -306 0 -570 -124 -754 -353 -65 -80 -178 -291 -205 -382 -7
-22 -16 -44 -20 -48 -4 -5 -11 53 -15 130 -4 76 -12 221 -18 323 -14 213 -8
303 27 436 62 231 185 418 401 606 97 85 134 104 69 36 -168 -176 -318 -430
-374 -630 l-19 -68 38 0 c120 0 346 112 486 242 66 61 154 178 209 278 88 161
139 415 119 590 l-8 75 -80 -3 c-206 -6 -449 -114 -622 -275 -169 -157 -273
-356 -325 -618 -12 -60 -25 -104 -28 -97 -14 26 -39 196 -44 298 -13 259 -111
477 -288 646 -200 190 -448 292 -754 310 -62 4 -114 3 -117 -2z m3011 -3279
c-3 -3 -43 -15 -89 -26 -331 -79 -631 -184 -880 -308 l-177 -88 -93 60 c-52
32 -118 70 -147 84 -30 14 -50 29 -45 33 10 10 273 92 363 114 233 56 488 96
745 116 77 5 158 12 180 13 76 6 148 7 143 2z m-3063 -40 c355 -38 665 -106
995 -220 413 -142 794 -353 1086 -601 172 -146 355 -341 482 -513 l55 -74 -39
-35 c-87 -75 -357 -242 -393 -242 -6 0 -17 14 -26 30 -31 60 -196 269 -291
369 -475 500 -1152 847 -1889 970 -184 31 -292 41 -518 48 l-207 6 -11 41
c-11 41 -31 139 -44 210 l-6 39 328 -6 c185 -3 393 -13 478 -22z m3395 -46 c0
-20 -23 -104 -31 -115 -5 -6 -71 -38 -147 -70 -267 -114 -515 -254 -725 -410
l-128 -94 -110 101 c-60 57 -109 105 -109 109 0 9 272 153 380 201 199 87 483
185 735 255 140 38 135 37 135 23z m-100 -390 c0 -16 -73 -186 -122 -283 -75
-149 -226 -363 -325 -459 l-40 -38 -49 63 c-27 35 -84 99 -126 144 l-77 80
102 86 c213 180 328 258 582 394 48 26 55 27 55 13z m-3735 -90 c613 -70 1233
-301 1689 -627 93 -67 297 -244 377 -328 119 -125 269 -317 257 -329 -3 -3
-48 -16 -101 -30 -102 -26 -266 -50 -407 -60 l-85 -6 -24 43 c-99 178 -385
455 -658 634 -275 182 -666 336 -1009 398 -49 9 -100 19 -112 22 -19 4 -35 29
-77 118 -30 62 -61 130 -69 151 l-16 37 73 -6 c39 -4 113 -11 162 -17z m282
-655 c275 -102 578 -271 787 -438 92 -74 236 -205 236 -216 0 -11 -115 15
-225 52 -300 99 -621 304 -865 553 -88 91 -93 97 -63 92 18 -4 76 -23 130 -43z"/>
</g>
</svg>
