<?xml version="1.0" standalone="no"?>
<!DOCTYPE svg PUBLIC "-//W3C//DTD SVG 20010904//EN"
 "http://www.w3.org/TR/2001/REC-SVG-20010904/DTD/svg10.dtd">
<svg version="1.0" xmlns="http://www.w3.org/2000/svg"
 width="1024.000000pt" height="1024.000000pt" viewBox="0 0 1024.000000 1024.000000"
 preserveAspectRatio="xMidYMid meet">

<g transform="translate(0.000000,1024.000000) scale(0.100000,-0.100000)"
fill="#000000" stroke="none">
<path d="M3877 9244 c-16 -27 -29 -176 -24 -272 9 -167 44 -293 121 -438 83
-156 200 -282 359 -388 141 -94 288 -144 476 -162 l73 -7 -7 34 c-40 189 -247
512 -435 679 -39 35 -69 65 -66 67 15 15 224 -145 313 -241 253 -270 347 -562
360 -1118 3 -142 2 -248 -3 -248 -5 0 -34 39 -64 87 -133 209 -177 269 -243
335 -208 209 -496 299 -806 254 -126 -19 -241 -52 -344 -98 -77 -36 -77 -25
-11 -146 152 -278 380 -463 660 -534 74 -19 115 -23 249 -23 155 1 304 20 328
44 14 14 -181 202 -274 264 -96 63 -235 132 -349 172 l-75 26 56 -5 c80 -8
233 -49 323 -86 204 -85 390 -257 475 -441 59 -125 59 -134 53 -602 -4 -317
-8 -427 -17 -427 -6 0 -45 11 -86 25 -121 42 -374 101 -544 129 -320 52 -412
58 -1029 63 l-579 5 6 -138 c27 -581 288 -1165 707 -1584 446 -447 1012 -680
1649 -680 271 0 498 36 731 115 900 306 1521 1128 1599 2114 6 74 11 144 11
154 0 19 -12 19 -517 14 -285 -3 -567 -10 -628 -16 -371 -36 -714 -105 -1001
-201 l-116 -39 5 342 c4 333 4 344 30 434 33 116 71 199 133 293 125 190 317
338 530 410 87 29 87 25 -2 -28 -157 -93 -297 -219 -398 -356 -62 -84 -80
-115 -71 -124 4 -4 66 -7 138 -6 151 0 262 23 383 79 208 95 395 283 494 498
30 65 80 204 80 222 0 19 -216 55 -331 55 -306 0 -570 -124 -754 -353 -65 -80
-178 -291 -205 -382 -7 -22 -16 -44 -20 -48 -4 -5 -11 53 -15 130 -4 76 -12
221 -18 323 -14 213 -8 303 27 436 45 166 141 341 257 468 59 65 228 216 242
216 4 0 -17 -28 -47 -62 -175 -197 -302 -415 -356 -610 l-19 -68 38 0 c120 0
346 112 486 242 66 61 154 178 209 278 88 161 139 415 119 590 l-8 75 -80 -3
c-206 -6 -449 -114 -622 -275 -169 -157 -273 -356 -325 -618 -12 -60 -25 -104
-28 -97 -14 26 -39 196 -44 298 -13 259 -111 477 -288 646 -200 190 -448 292
-754 310 -62 4 -114 3 -117 -2z m3011 -3279 c-3 -3 -43 -15 -89 -26 -331 -79
-631 -184 -880 -308 l-177 -88 -93 60 c-52 32 -118 70 -147 84 -30 14 -50 29
-45 33 10 10 273 92 363 114 233 56 488 96 745 116 77 5 158 12 180 13 76 6
148 7 143 2z m-3063 -40 c355 -38 665 -106 995 -220 413 -142 794 -353 1086
-601 172 -146 355 -341 482 -513 l55 -74 -39 -35 c-87 -75 -357 -242 -393
-242 -6 0 -17 14 -26 30 -31 60 -196 269 -291 369 -475 500 -1152 847 -1889
970 -184 31 -292 41 -518 48 l-207 6 -11 41 c-11 41 -31 139 -44 210 l-6 39
328 -6 c185 -3 393 -13 478 -22z m3395 -46 c0 -20 -23 -104 -31 -115 -5 -6
-71 -38 -147 -70 -267 -114 -515 -254 -725 -410 l-128 -94 -110 101 c-60 57
-109 105 -109 109 0 9 272 153 380 201 199 87 483 185 735 255 140 38 135 37
135 23z m-100 -390 c0 -16 -73 -186 -122 -283 -75 -149 -226 -363 -325 -459
l-40 -38 -49 63 c-27 35 -84 99 -126 144 l-77 80 102 86 c213 180 328 258 582
394 48 26 55 27 55 13z m-3735 -90 c614 -70 1233 -300 1689 -627 93 -67 297
-244 377 -328 119 -125 269 -317 257 -329 -3 -3 -48 -16 -101 -30 -102 -26
-266 -50 -407 -60 l-85 -6 -24 43 c-99 178 -385 455 -658 634 -275 182 -666
336 -1009 398 -49 9 -100 19 -112 22 -19 4 -35 29 -77 118 -30 62 -61 130 -69
151 l-16 37 73 -6 c39 -4 113 -11 162 -17z m282 -655 c275 -102 578 -271 787
-438 92 -74 236 -205 236 -216 0 -12 -119 16 -239 57 -97 32 -278 116 -361
166 -191 115 -348 237 -490 382 -88 91 -93 97 -63 92 18 -4 76 -23 130 -43z"/>
<path d="M8042 3383 l-83 -4 3 -219 c2 -121 0 -220 -3 -220 -3 0 -14 9 -25 21
-10 12 -41 33 -69 47 -43 23 -63 27 -135 27 -71 0 -94 -4 -141 -26 -100 -47
-174 -142 -200 -256 -17 -78 -13 -209 11 -283 73 -232 347 -327 521 -180 l49
41 0 -45 0 -46 100 0 100 0 0 575 0 575 -22 -2 c-13 -1 -60 -4 -106 -5z m-199
-537 c75 -27 117 -92 125 -192 6 -78 -17 -149 -61 -192 -125 -121 -317 -26
-317 157 0 109 37 182 110 219 50 25 88 27 143 8z"/>
<path d="M5379 3363 c-88 -55 -72 -187 27 -222 52 -18 106 -8 145 27 59 53 47
162 -21 197 -38 20 -118 19 -151 -2z"/>
<path d="M1649 3270 c-29 -74 -379 -1023 -379 -1027 0 -2 52 -2 116 -1 l116 3
39 109 c21 60 41 112 44 115 3 3 101 4 218 3 l212 -2 41 -112 40 -113 118 -3
118 -3 -7 23 c-4 13 -32 88 -62 168 -30 80 -102 269 -159 420 -57 151 -121
320 -142 375 l-38 100 -126 0 -127 0 -22 -55z m165 -202 c5 -25 100 -306 133
-395 4 -10 -29 -13 -146 -13 -104 0 -151 3 -151 11 0 21 143 429 150 429 4 0
10 -15 14 -32z"/>
<path d="M4933 3233 l-93 -4 0 -104 0 -105 -55 0 -55 0 0 -85 0 -85 55 0 55 0
0 -189 c0 -214 9 -277 48 -340 41 -67 104 -96 207 -96 44 0 92 3 108 8 27 7
27 8 27 97 l0 90 -53 -6 c-111 -13 -127 19 -127 261 l0 175 90 0 90 0 0 85 0
85 -90 0 -90 0 0 110 c0 82 -3 109 -12 108 -7 -1 -55 -4 -105 -5z"/>
<path d="M2609 3025 c-272 -87 -351 -474 -141 -684 65 -65 128 -93 218 -99 93
-6 147 9 211 58 l50 38 -4 -47 c-7 -73 -22 -109 -60 -146 -68 -66 -190 -70
-309 -11 l-65 33 -51 -70 c-39 -54 -48 -74 -41 -86 19 -31 166 -98 244 -111
190 -32 377 45 443 184 42 89 46 135 46 543 l0 393 -100 0 -100 0 0 -41 0 -42
-25 27 c-59 64 -214 94 -316 61z m227 -184 c113 -52 148 -248 62 -347 -42 -48
-83 -67 -143 -67 -113 0 -185 86 -185 222 1 156 134 252 266 192z"/>
<path d="M3638 3026 c-57 -20 -87 -44 -111 -84 l-22 -37 -3 58 -3 57 -99 0
-100 0 0 -390 0 -390 108 0 107 0 -3 197 c-4 223 6 298 47 346 35 41 79 57
161 57 l70 0 2 80 c1 44 2 88 2 98 1 14 -9 17 -59 19 -33 2 -77 -4 -97 -11z"/>
<path d="M4150 3029 c-222 -43 -356 -278 -294 -514 30 -118 104 -207 214 -259
52 -24 81 -31 151 -34 217 -11 382 107 429 307 17 70 7 191 -20 264 -25 65
-101 155 -164 192 -80 47 -210 65 -316 44z m179 -193 c119 -62 150 -258 58
-363 -75 -85 -199 -85 -274 0 -43 49 -56 97 -51 178 6 84 42 150 96 179 45 23
131 26 171 6z"/>
<path d="M5958 3026 c-191 -55 -303 -248 -269 -464 20 -132 71 -217 166 -278
78 -49 151 -67 260 -62 79 3 101 8 159 37 46 23 76 46 101 78 19 25 35 49 35
52 0 3 -29 23 -64 44 l-64 38 -52 -33 c-70 -43 -157 -51 -224 -18 -52 24 -79
57 -94 113 l-10 37 269 0 269 0 0 60 c0 175 -78 318 -206 377 -67 30 -204 40
-276 19z m201 -183 c29 -23 56 -65 66 -105 l7 -27 -159 -3 c-87 -2 -161 -1
-165 2 -12 9 20 81 48 111 16 16 42 34 59 39 44 14 113 5 144 -17z"/>
<path d="M6881 3023 c-24 -9 -61 -34 -83 -56 l-40 -41 7 47 7 47 -106 0 -106
0 0 -390 0 -390 104 0 105 0 3 258 c3 282 6 297 63 332 39 24 114 26 154 5 54
-27 61 -67 61 -345 l0 -250 106 0 106 0 -4 293 c-5 322 -9 347 -70 421 -64 78
-197 108 -307 69z"/>
<path d="M8541 3030 c-69 -15 -125 -47 -175 -100 -25 -27 -46 -53 -46 -58 0
-4 28 -27 61 -50 64 -45 65 -45 107 -4 41 38 123 58 180 43 52 -15 83 -50 89
-103 l5 -43 -99 -2 c-188 -2 -280 -41 -340 -143 -28 -46 -33 -64 -33 -117 0
-149 113 -241 283 -231 79 4 133 25 176 69 l29 28 6 -39 6 -40 90 0 90 0 0
268 c0 284 -7 337 -50 407 -28 45 -74 80 -131 100 -54 20 -188 27 -248 15z
m214 -512 c0 -64 -24 -99 -82 -124 -56 -24 -110 -18 -144 15 -84 84 15 173
186 167 l40 -1 0 -57z"/>
<path d="M5350 2630 l0 -390 105 0 105 0 0 390 0 390 -105 0 -105 0 0 -390z"/>
</g>
</svg>
